<svg xmlns="http://www.w3.org/2000/svg" xmlns:xlink="http://www.w3.org/1999/xlink" width="350" height="177" viewBox="0 0 350 177">
  <defs>
    <polygon id="logo_vlastelini-a" points="0 12.949 349.627 12.949 349.627 175.987 0 175.987"/>
  </defs>
  <g fill="none" fill-rule="evenodd">
    <path fill="#959693" d="M165.958859,110.141808 C164.037538,110.141808 162.088889,110.035468 160.167042,109.833424 C130.427027,106.637928 108.801652,79.5543697 111.959535,49.4630045 C114.897748,21.4819428 138.057132,0.378375738 165.830631,0.378375738 C167.753529,0.378375738 169.702177,0.484183348 171.62455,0.691013299 C201.367192,3.88704115 222.992042,30.9684723 219.834159,61.0577107 C216.896997,89.0440894 193.734985,110.141808 165.958859,110.141808 M165.830631,4.76008686 C140.276426,4.76008686 118.967417,24.1776442 116.263063,49.9261121 C113.358483,77.614209 133.255931,102.53323 160.623724,105.473512 C162.395796,105.664923 164.190465,105.765945 165.958859,105.765945 C191.516216,105.765945 212.8247,86.343071 215.528529,60.594603 C216.936411,47.182558 213.097973,34.0182836 204.720045,23.5252525 C196.341592,13.0332849 184.425826,6.47161799 171.167342,5.04667129 C169.396847,4.85632393 167.600601,4.76008686 165.830631,4.76008686"/>
    <mask id="logo_vlastelini-b" fill="#fff">
      <use xlink:href="#logo_vlastelini-a"/>
    </mask>
    <path fill="#959693" d="M211.945495 54.4444693C210.521321 50.036705 204.407357 45.4689001 197.124099 42.600929 197.149324 42.5041602 197.178228 42.4084549 197.197673 42.3111544 197.895045 39.0763127 196.036787 37.6976236 194.818619 37.4301802 193.217868 37.0766021 192.029655 37.7842901 191.663363 39.4793387 191.553529 39.9908307 191.547222 40.4300121 191.59452 40.8239992 188.822372 40.1280084 186.010811 39.7191338 183.321697 39.6787249 187.973649 35.5091607 192.491066 29.7003761 193.532132 24.8757617 194.525901 20.2531921 192.916742 15.860847 187.889565 14.7559817 183.518769 13.7946743 176.759985 16.6445677 170.740616 21.3405115 170.663363 21.260757 170.58506 21.1794075 170.504129 21.106565 168.078829 18.881415 165.972523 19.8267715 165.136411 20.7609623 164.035961 21.9891813 164.049625 23.3848847 165.322973 24.5498318 165.67455 24.8731033 166.016667 25.0900354 166.349324 25.2421007 164.408033 27.2061876 162.664865 29.3446711 161.256456 31.562909 159.961036 25.5127342 157.273498 18.881415 153.733559 15.6407247 150.266667 12.4664964 145.701426 11.6928779 142.251351 15.5503363 139.22958 18.9282043 138.315691 26.3554732 139.376727 34.0294492 139.12027 34.0762385 138.871171 34.1341934 138.634159 34.2118211 135.522523 35.242249 135.289189 37.5599142 135.676502 38.7588899 136.185736 40.3332433 137.390766 41.0143466 139.018318 40.4752063 139.679955 40.2561473 140.138213 39.9461682 140.493994 39.6010972 141.256532 42.4743852 142.300751 45.2493094 143.613514 47.7195715 137.671396 45.7273046 130.31509 44.6814575 125.626351 46.2334797 121.178829 47.7057474 118.24955 51.329791 119.848724 56.2766955 121.275526 60.6844598 127.386336 65.251733 134.672222 68.1202358 134.644895 68.2170045 134.617042 68.314305 134.596547 68.4094787 133.899174 71.6453838 135.756907 73.0235412 136.975601 73.2904528 138.576351 73.6424359 139.766141 72.9368746 140.129279 71.2434212 140.240691 70.7298023 140.248048 70.2895576 140.1997 69.8971656 142.972898 70.5926246 145.783408 71.002031 148.471997 71.0403131 143.820571 75.210409 139.301577 81.0207887 138.262613 85.8432762 137.268844 90.4690361 138.878529 94.8555325 143.90518 95.9667782 148.274925 96.9291489 155.033183 94.0739386 161.053604 89.3790582 161.130856 89.4588127 161.21021 89.5438841 161.29009 89.6130047 163.71539 91.8408131 165.823273 90.8943933 166.65991 89.9586074 167.758784 88.7303884 167.744595 87.3373435 166.472823 86.1729281 166.120195 85.8485932 165.777027 85.6305976 165.444895 85.4764056 167.386712 83.5144454 169.129354 81.375962 170.54039 79.1566607 171.832658 85.2105574 174.521772 91.8408131 178.060135 95.078845 181.528078 98.2530733 186.091742 99.0293502 189.543919 95.1692334 192.565165 91.7929604 193.478003 84.3651599 192.418018 76.6917155 192.675 76.6443945 192.924625 76.5869713 193.16006 76.5093436 196.272222 75.4789158 196.505556 73.1607189 196.118243 71.9606798 195.610586 70.3879215 194.406081 69.7073499 192.775375 70.2464902 192.114264 70.4644858 191.656532 70.7771233 191.300751 71.1195359 190.537162 68.2467795 189.493468 65.472387 188.178604 63.0015932 194.124925 64.9938601 201.477553 66.0391755 206.168393 64.4871534 210.61539 63.0175441 213.54467 59.3913738 211.945495 54.4444693M192.489489 44.1300882C192.484234 44.1720923 192.481081 44.2140963 192.472147 44.2571637 192.091667 46.0293083 190.175601 47.1421491 186.595721 46.3531114 185.339715 46.0760975 184.252928 45.3200251 183.059459 44.6766723 185.724399 43.8876346 189.132432 43.6185962 192.489489 44.1300882M169.820946 26.2204223C171.148949 27.4374756 171.148949 29.6721962 168.690541 32.4205355 167.687838 33.5408201 166.241592 34.1389787 164.942492 35.0545601 165.651952 32.167448 167.283709 28.8448763 169.624925 26.0656986 169.691667 26.1124879 169.756832 26.1624673 169.820946 26.2204223M142.883033 37.3004463C144.536862 36.8835962 146.348874 38.0341875 147.444069 41.4221578 147.845571 42.6599473 147.747823 43.9982275 147.803529 45.3668144 145.853829 43.3394555 144.022898 40.4720161 142.883033 37.3004463M139.302628 66.5910765C139.309985 66.5490725 139.311562 66.5070685 139.322072 66.4640011 139.704129 64.6902614 141.617042 63.5790157 145.198498 64.3675216 146.452928 64.6450672 147.543393 65.4011397 148.734234 66.0439608 146.069294 66.8340618 142.662312 67.1020369 139.302628 66.5910765M161.974324 84.503401C160.644745 83.280499 160.644745 81.0484369 163.105255 78.3000975 164.105856 77.1803447 165.551051 76.5821861 166.851727 75.6660729 166.142267 78.5521217 164.510511 81.8762884 162.169294 84.652276 162.102553 84.6097403 162.037387 84.5565706 161.974324 84.503401M188.911186 73.4207185C187.258408 73.8370369 185.445345 72.687509 184.35015 69.299007 183.949174 68.0606857 184.047447 66.7229373 183.992267 65.3543504 185.939339 67.3817093 187.771847 70.2475536 188.911186 73.4207185M201.417643 59.1728465C195.377252 61.1698987 190.067868 60.5148486 185.887838 59.3993492 185.168393 58.4566513 184.398498 57.5899859 183.569219 56.8317867 180.67988 54.185533 177.906156 53.8771491 176.390015 55.573261 174.662087 57.5049145 175.043619 59.6614756 176.547147 61.038038 176.942868 61.4011867 177.321772 61.6175872 177.707508 61.7776278 177.793168 61.9903064 177.877778 62.2141507 177.953979 62.4528824 178.680781 64.7024904 178.077477 66.8946752 179.047072 69.8923803 180.046622 72.9836639 185.43536 76.1307757 189.800375 76.705008 190.547673 80.8081101 189.933859 85.0935841 186.843769 88.5496116 184.960285 90.6551299 182.28536 90.1181164 180.263138 88.2678124 175.801426 84.1843831 173.707207 79.4895027 172.548423 75.4145805 173.093393 74.159245 173.519069 72.8938072 173.790766 71.6352815 174.620571 67.7804817 173.501727 65.1932463 171.293468 64.7062123 168.777778 64.154843 167.118694 65.5622437 166.689339 67.5667397 166.633634 67.8182321 166.609985 68.0457982 166.602102 68.2637938 166.375601 68.5934457 166.120195 68.9353265 165.806456 69.2873096 164.237763 71.0403131 162.056306 71.5969994 159.964189 73.9375275 157.730706 76.4322476 157.780105 83.0837712 159.636787 87.1831515 156.527778 89.7671966 152.628378 91.2665809 148.233934 90.2988932 145.493318 89.6980761 144.619369 87.0821292 145.198498 84.3864277 146.547523 78.1182573 149.781607 73.821086 152.840691 70.7367144 153.835511 70.5740152 154.79985 70.3538929 155.713213 70.0497625 159.419219 68.824202 161.059384 66.5405654 160.356231 64.3659265 159.555856 61.8919426 157.514715 61.1566063 155.589715 61.7941104 155.178228 61.9318198 154.853453 62.1046212 154.568619 62.3024123 154.467192 62.2832712 154.373123 62.273169 154.272222 62.250306 151.985661 61.745726 150.422748 60.1107592 147.376802 59.4397582 144.120646 58.7219679 138.428679 62.0897337 135.846772 65.7653518 131.835435 64.4164377 128.336486 61.7233948 126.870796 57.1912135 125.998423 54.4928536 127.784159 52.4070082 130.377102 51.5488499 136.41539 49.5512661 141.7253 50.2063162 145.906381 51.3196887 146.626351 52.2639818 147.396246 53.1311788 148.223949 53.8899098 151.114865 56.5351 153.890165 56.8424206 155.406306 55.1463087 157.132132 53.2162503 156.748498 51.0580941 155.247598 49.6825951 154.853453 49.3199781 154.474024 49.1041093 154.087237 48.9435369 154.001051 48.7292632 153.916967 48.5070141 153.84024 48.2677507 153.113438 46.0186743 153.716742 43.8264895 152.748198 40.8287845 151.747598 37.7369691 146.358859 34.5898574 141.993844 34.0156251 141.246547 29.9130547 141.86036 25.6254538 144.95045 22.1715532 146.833934 20.0665666 149.509384 20.6014533 151.533183 22.453884 155.992793 26.5389085 158.085435 31.2295353 159.247372 35.3065843 158.698724 36.5613881 158.274099 37.8252308 158.002928 39.0874783 157.173649 42.9406831 158.292492 45.5273867 160.4997 46.0149524 163.014339 46.5679168 164.673949 45.1583893 165.105931 43.1538934 165.158483 42.9029326 165.184234 42.6753665 165.193168 42.4568393 165.41967 42.1277191 165.67455 41.7858382 165.989865 41.4338551 167.555931 39.6808517 169.737913 39.1241654 171.831081 36.7831056 174.064039 34.2883854 174.013589 27.634735 172.158483 23.5353548 175.267492 20.952373 179.166366 19.4519254 183.55976 20.4201448 186.298799 21.0246838 187.174324 23.6379722 186.595721 26.3363321 185.246171 32.6029074 182.013138 36.9000788 178.953529 39.9849821 177.957132 40.1471495 176.994369 40.3672719 176.079429 40.6714023 172.376051 41.8964311 170.735886 44.1805994 171.436937 46.3547065 172.238363 48.8292222 174.28003 49.5645585 176.205556 48.9270544 176.617042 48.7893449 176.942868 48.6160119 177.225601 48.4187525 177.32545 48.4357668 177.41952 48.4479958 177.524625 48.470327 179.808559 48.9738436 181.371471 50.6109373 184.416892 51.2814066 187.673048 51.9970701 193.363438 48.629836 195.947973 44.9552813 199.958258 46.3047271 203.459835 48.99777 204.923423 53.5299512 205.796321 56.2283111 204.007958 58.3141566 201.417643 59.1728465M20.2201201 175.992423C14.9138889 175.992423 10.8468468 171.637829 10.8468468 165.73068 10.8468468 156.787544 20.6331832 143.069774 26.115991 138.295139 20.3966967 138.295139 17.6855105 136.747902 11.8495495 136.747902 6.07244745 136.747902 3.41906907 139.012929 3.41906907 142.474274 3.41906907 148.078355 9.37327327 144.500038 9.37327327 149.450132 9.37327327 151.061173 7.78093093 152.193686 6.13025526 152.193686 2.59294294 152.193686-4.19220214e-13 149.928659-4.19220214e-13 145.574065-4.19220214e-13 138.353626 7.7225976 132.632571 15.1509009 132.632571 17.3906907 132.632571 22.1656156 133.759768 25.5263514 133.759768 27.4114114 133.759768 28.060961 133.228071 28.8271772 133.228071 29.6533033 133.228071 30.4195195 134.062835 30.4195195 134.839112 30.4195195 138.178166 16.7427177 146.945842 16.7427177 163.52414 16.7427177 167.341721 18.8064565 170.388342 22.5781532 170.388342 35.606982 170.388342 43.0930931 155.830491 43.0930931 143.665274 43.0930931 140.682457 41.3846096 138.119679 41.3846096 136.210889 41.3846096 134.302098 42.9165165 132.632571 45.2167417 132.632571 46.9856607 132.632571 48.3415165 134.302098 48.3415165 137.284916 48.3415165 157.920058 30.4778529 175.992423 20.2201201 175.992423M67.0954204 133.642794L54.2426426 167.283234C53.890015 168.240288 53.1222222 170.026788 53.1222222 170.744578 53.1222222 171.281592 53.2987988 171.637829 53.7717718 171.637829 55.7766517 171.637829 58.4883634 166.629247 59.1358108 166.629247 59.725976 166.629247 60.0786036 167.283234 60.139039 167.644788 60.1968468 168.176484 54.3614114 175.992423 50.7058559 175.992423 48.5238739 175.992423 47.5816066 174.796106 47.5816066 172.828829 47.5816066 171.754802 47.8759009 170.505315 48.4056306 169.016565L59.1358108 140.618653C59.6072072 139.369166 59.7853604 138.534403 59.7853604 137.938902 59.7853604 137.104139 58.9597598 136.684099 57.3090841 136.508639 57.0142643 136.450152 56.8361111 136.147085 56.8361111 135.732362 56.8361111 135.312322 57.0142643 135.014571 57.3090841 135.014571 59.9619369 134.536045 64.1477477 132.930321 65.8562312 131.856294 66.1510511 131.675517 66.4458709 131.436254 66.8589339 131.436254 67.2714715 131.436254 67.448048 131.734004 67.448048 132.095558 67.448048 132.510281 67.3303303 132.988808 67.0954204 133.642794M82.5411411 168.538038C82.0697447 169.612065 81.6566817 170.744578 81.6566817 171.457052 81.6566817 171.935579 81.8348348 172.174842 82.2463213 172.174842 83.6021772 172.174842 87.1394895 166.926997 87.6103604 166.926997 88.2005255 166.926997 88.5547297 167.580984 88.5547297 167.937221 88.5547297 168.415748 82.6599099 175.992423 79.0637387 175.992423 77.0583333 175.992423 76.1155405 174.918396 76.1155405 173.190382 76.1155405 171.159302 77.2349099 168.474234 78.5923423 165.911457 75.7629129 171.217788 70.2207207 175.992423 66.6245495 175.992423 64.6207207 175.992423 63.3815315 174.381383 63.3815315 171.637829 63.3815315 162.987126 76.175976 150.045632 82.4833333 150.045632 83.4855105 150.045632 84.3100601 150.226409 85.0174174 150.699619L85.7258258 148.971605C86.0206456 148.317619 87.375976 147.961382 88.7917417 147.961382 90.3241742 147.961382 91.2065315 148.434592 90.9138138 148.971605L82.5411411 168.538038zM82.3062312 151.895936C76.7057057 151.895936 68.4512763 163.109416 68.4512763 168.474234 68.4512763 170.680775 69.0992492 171.457052 70.6332583 171.457052 73.9346096 171.457052 83.6021772 157.861571 83.6021772 153.682437 83.6021772 152.549923 83.2495495 151.895936 82.3062312 151.895936L82.3062312 151.895936zM107.306006 154.34174C105.597523 154.34174 103.65045 151.178146 102.060736 151.178146 101.055405 151.178146 100.465766 151.954423 100.465766 152.969963 100.465766 156.309018 104.771396 162.513916 104.771396 166.267694 104.771396 170.324538 101.823198 175.992423 95.5147898 175.992423 92.627027 175.992423 90.031982 174.083633 90.031982 172.531079 90.031982 170.983842 90.9763514 170.026788 92.5087838 170.026788 94.6303303 170.026788 94.7485736 173.605106 97.9337838 173.605106 99.5234985 173.605106 100.465766 172.116355 100.465766 169.612065 100.465766 166.506957 96.3997748 162.093876 96.3997748 156.963004 96.3997748 153.267713 99.8782282 148.434592 104.535435 148.434592 107.659159 148.434592 109.309835 149.987146 109.309835 151.71516 109.309835 153.44849 108.485811 154.34174 107.306006 154.34174M128.58979 152.43295L122.635586 152.252173 117.093393 168.538038C116.798574 169.489775 116.50533 170.505315 116.50533 171.217788 116.50533 171.818605 116.681381 172.174842 117.152778 172.174842 119.27485 172.174842 123.873198 166.926997 124.462312 166.926997 125.110285 166.926997 125.523874 167.580984 125.523874 167.937221 125.523874 168.596524 117.918994 175.992423 114.323348 175.992423 112.081456 175.992423 111.080856 174.737619 111.080856 172.653369 111.080856 171.579342 111.315766 170.388342 111.788739 169.011248L117.447598 152.31066 112.907583 152.43295C112.436712 152.43295 112.318468 152.01291 112.318468 151.475896 112.318468 150.641133 113.025826 149.806369 113.497222 149.806369L118.272147 149.806369 120.454129 143.367524C120.690616 142.70822 122.399099 142.351984 123.401802 142.351984 124.344069 142.351984 125.876502 142.70822 125.642117 143.367524L123.461712 149.806369 129.121096 149.806369C129.650826 149.806369 129.769069 150.226409 129.769069 150.763423 129.769069 151.598186 129.060661 152.43295 128.58979 152.43295M135.194069 163.52414C135.075826 164.720457 135.017492 165.85297 135.017492 166.746221 135.017492 170.149078 135.842042 171.637829 138.141742 171.637829 141.677477 171.637829 143.741742 168.894274 144.803829 167.224747 145.097072 166.868511 145.983108 167.761761 145.746622 168.240288 144.627252 170.622288 140.676877 175.992423 136.315015 175.992423 132.00991 175.992423 129.711261 171.935579 129.711261 168.415748 129.711261 159.111058 138.082357 148.434592 144.037613 148.434592 147.220195 148.434592 148.517718 150.524159 148.517718 152.911477 148.517718 158.042348 142.621847 163.52414 135.194069 163.52414M142.150976 151.417409C139.084535 151.417409 136.491592 156.309018 135.547222 161.615349 142.209309 161.615349 144.330856 155.772004 144.330856 153.9217 144.330856 152.374463 143.682883 151.417409 142.150976 151.417409M170.154655 133.642794L157.302402 167.283234C156.9503 168.240288 156.184084 170.026788 156.184084 170.744578 156.184084 171.281592 156.360135 171.637829 156.833108 171.637829 158.836937 171.637829 161.547598 166.629247 162.196096 166.629247 162.785736 166.629247 163.140465 167.283234 163.200375 167.644788 163.258183 168.176484 157.421171 175.992423 153.767192 175.992423 151.585736 175.992423 150.642943 174.796106 150.642943 172.828829 150.642943 171.754802 150.937763 170.505315 151.466967 169.016565L162.196096 140.618653C162.669069 139.369166 162.845646 138.534403 162.845646 137.938902 162.845646 137.104139 162.01952 136.684099 160.370946 136.508639 160.074024 136.450152 159.897447 136.147085 159.897447 135.732362 159.897447 135.312322 160.074024 135.014571 160.370946 135.014571 163.022222 134.536045 167.20961 132.930321 168.918093 131.856294 169.211862 131.675517 169.507733 131.436254 169.920796 131.436254 170.331757 131.436254 170.508333 131.734004 170.508333 132.095558 170.508333 132.510281 170.391141 132.988808 170.154655 133.642794M180.768168 155.351964L174.343093 168.538038C173.63521 169.968301 173.34039 170.622288 173.34039 171.457052 173.34039 171.935579 173.458634 172.174842 173.811787 172.174842 175.404129 172.174842 178.881532 166.926997 179.470646 166.926997 180.060285 166.926997 180.415015 167.580984 180.415015 167.937221 180.415015 168.415748 174.046697 175.992423 170.451051 175.992423 168.447748 175.992423 167.621096 174.918396 167.621096 173.365842 167.621096 172.174842 168.152402 170.680775 168.918619 169.011248L175.344219 155.894294C176.051577 154.458714 176.346922 153.443173 176.346922 152.847673 176.346922 152.491436 176.170345 152.252173 175.817192 152.252173 174.283183 152.252173 170.627628 157.500018 170.158333 157.500018 169.566592 157.500018 169.271772 156.846031 169.271772 156.489794 169.271772 155.952781 175.580706 148.434592 179.236261 148.434592 181.003078 148.434592 182.005781 149.269356 182.005781 150.9442 182.005781 152.491436 181.653153 153.506977 180.768168 155.351964M182.182357 140.565483C180.297297 140.565483 178.823198 139.071416 178.823198 137.221112 178.823198 135.370808 180.297297 133.823571 182.182357 133.823571 184.011186 133.823571 185.485285 135.370808 185.485285 137.221112 185.485285 139.071416 184.011186 140.565483 182.182357 140.565483M209.598498 157.324558L204.940766 168.538038C204.351126 169.968301 203.939114 170.925355 203.939114 171.457052 203.939114 171.935579 204.115691 172.174842 204.47042 172.174842 206.179429 172.174842 209.067192 167.464011 209.658408 167.464011 210.248048 167.464011 210.541291 168.117998 210.541291 168.474234 210.541291 169.133538 204.823574 175.992423 201.051351 175.992423 199.517342 175.992423 198.280781 175.274633 198.280781 173.785883 198.280781 172.653369 198.691216 171.100815 199.576201 169.011248L204.351126 157.500018C204.881907 156.250531 205.176727 155.176504 205.176727 154.283254 205.176727 153.267713 204.823574 152.613727 203.821922 152.613727 200.873198 152.613727 194.682508 163.167903 191.73536 168.596524L189.79039 174.264409C189.554429 174.918396 187.786036 175.274633 186.843243 175.274633 185.841066 175.274633 184.366967 174.918396 184.603453 174.264409L190.734234 155.888977C191.263438 154.458714 191.50045 153.565463 191.50045 152.969963 191.50045 152.491436 191.323874 152.252173 190.969144 152.252173 189.437237 152.252173 186.783859 157.026808 186.135886 157.026808 185.545721 157.026808 185.193093 156.309018 185.193093 156.011268 185.193093 155.532741 190.439414 148.434592 194.035586 148.434592 195.922222 148.434592 197.042643 149.391646 197.042643 151.119659 197.042643 152.193686 196.746246 153.62395 196.157132 155.357281L194.38979 160.424349C197.278078 155.596544 202.406682 148.434592 207.064414 148.434592 209.008859 148.434592 210.837162 149.864856 210.837162 152.374463 210.837162 153.74624 210.424625 155.357281 209.598498 157.324558M227.110586 155.351964L220.685511 168.538038C219.978153 169.968301 219.682808 170.622288 219.682808 171.457052 219.682808 171.935579 219.799474 172.174842 220.15473 172.174842 221.744444 172.174842 225.223423 166.926997 225.813063 166.926997 226.402703 166.926997 226.757432 167.580984 226.757432 167.937221 226.757432 168.415748 220.389114 175.992423 216.792943 175.992423 214.790165 175.992423 213.964039 174.918396 213.964039 173.365842 213.964039 172.174842 214.49482 170.680775 215.261036 169.011248L221.687162 155.894294C222.39452 154.458714 222.688814 153.443173 222.688814 152.847673 222.688814 152.491436 222.512237 152.252173 222.159084 152.252173 220.625075 152.252173 216.96952 157.500018 216.500751 157.500018 215.911111 157.500018 215.614189 156.846031 215.614189 156.489794 215.614189 155.952781 221.922598 148.434592 225.578679 148.434592 227.345495 148.434592 228.348198 149.269356 228.348198 150.9442 228.348198 152.491436 227.995571 153.506977 227.110586 155.351964M228.524775 140.565483C226.638138 140.565483 225.166141 139.071416 225.166141 137.221112 225.166141 135.370808 226.638138 133.823571 228.524775 133.823571 230.353604 133.823571 231.827703 135.370808 231.827703 137.221112 231.827703 139.071416 230.353604 140.565483 228.524775 140.565483M293.92012 166.0816C292.855931 170.484047 293.37042 173.115945 295.248123 173.578521 298.584159 174.402651 302.521922 166.37935 304.164189 159.584268 305.276201 154.979776 304.551502 152.698798 302.834084 152.273441 298.895796 151.300436 295.084685 161.264429 293.92012 166.0816zM308.98536 160.966679C307.544369 166.932314 303.951351 172.54703 299.161186 174.790789 297.251952 175.705307 295.049474 176.221053 292.988363 175.710624 288.236036 174.535575 287.952252 169.255828 289.013288 164.864015 290.97455 156.750326 295.746847 151.83745 300.47027 150.412503 302.060511 149.949927 303.817868 149.870173 305.099625 150.189191 309.131982 151.183463 310.357508 155.28816 308.98536 160.966679L308.98536 160.966679zM327.36036 166.02843C326.296697 170.430877 326.811186 173.057458 328.688363 173.525351 332.024399 174.349481 335.962162 166.320863 337.604429 159.525782 338.716967 154.926607 337.991742 152.645628 336.27485 152.220271 332.336036 151.247267 328.52545 161.205943 327.36036 166.02843zM342.426126 160.91351C340.98461 166.879145 337.391592 172.49386 332.601426 174.732302 330.692718 175.64682 328.489189 176.162566 326.428604 175.652137 321.676276 174.477088 321.391967 169.202658 322.453529 164.810845 324.414264 156.697156 329.187087 151.78428 333.911036 150.359333 335.501276 149.89144 337.258634 149.817003 338.539865 150.130704 342.572222 151.130293 343.798273 155.234991 342.426126 160.91351L342.426126 160.91351zM253.403153 171.393248C251.867568 171.393248 251.218018 170.616971 251.218018 168.405114 251.218018 163.029662 259.486111 151.794914 265.095571 151.794914 266.03994 151.794914 266.393619 152.454218 266.393619 153.586731 266.393619 157.771183 256.70976 171.393248 253.403153 171.393248zM279.490766 130.957727C279.079279 130.957727 278.784985 131.19699 278.492267 131.37245 276.79009 132.446477 272.61952 134.062835 269.978754 134.541362 269.683408 134.541362 269.507357 134.839112 269.507357 135.259152 269.507357 135.679192 269.683408 135.976942 269.978754 136.035429 271.621021 136.210889 272.443994 136.630929 272.443994 137.471009 272.443994 138.06651 272.267943 138.901273 271.796547 140.156077L268.52515 148.859949C268.524099 148.865266 268.521471 148.865266 268.52042 148.870583L267.810961 150.598597C267.103078 150.125387 266.276426 149.94461 265.272147 149.94461 258.95533 149.94461 246.139865 162.907372 246.139865 171.568708 246.139865 174.317579 247.381156 175.933937 249.388664 175.933937 252.989565 175.933937 258.541742 171.153985 261.375375 165.837019 260.015841 168.405114 258.894895 171.090181 258.894895 173.126579 258.894895 174.85991 259.838739 175.933937 261.847823 175.933937 265.449249 175.933937 271.35458 168.34131 271.35458 167.8681 271.35458 167.506547 270.99985 166.85256 270.408634 166.85256 269.936712 166.85256 266.393619 172.105722 265.035661 172.105722 264.623649 172.105722 264.44497 171.871775 264.44497 171.393248 264.44497 170.675458 264.858559 169.537627 265.331006 168.4636L273.64955 149.046043 279.724099 133.164268C279.96006 132.510281 280.075676 132.031754 280.075676 131.611714 280.075676 131.255477 279.899625 130.957727 279.490766 130.957727L279.490766 130.957727z" mask="url(#logo_vlastelini-b)"/>
    <path fill="#959693" d="M279.033449 177C276.76775 177 275 175.233438 275 173.031546 275 170.842271 276.76775 169 279.033449 169 281.230988 169 283 170.842271 283 173.031546 283 175.233438 281.230988 177 279.033449 177M313.03408 177C310.76775 177 309 175.233438 309 173.031546 309 170.842271 310.76775 169 313.03408 169 315.230357 169 317 170.842271 317 173.031546 317 175.233438 315.230357 177 313.03408 177M346.033449 177C343.76775 177 342 175.227129 342 173.031546 342 170.842271 343.76775 169 346.033449 169 348.230357 169 350 170.842271 350 173.031546 350 175.227129 348.230357 177 346.033449 177"/>
  </g>
</svg>
