<?xml version="1.0" encoding="UTF-8" standalone="no"?>
<!-- Generated by IcoMoon.io -->

<svg
   xmlns:dc="http://purl.org/dc/elements/1.1/"
   xmlns:cc="http://creativecommons.org/ns#"
   xmlns:rdf="http://www.w3.org/1999/02/22-rdf-syntax-ns#"
   xmlns:svg="http://www.w3.org/2000/svg"
   xmlns="http://www.w3.org/2000/svg"
   xmlns:sodipodi="http://sodipodi.sourceforge.net/DTD/sodipodi-0.dtd"
   xmlns:inkscape="http://www.inkscape.org/namespaces/inkscape"
   version="1.1"
   width="1103"
   height="1024"
   viewBox="0 0 1103 1024"
   id="svg25"
   sodipodi:docname="bathtub.svg"
   inkscape:version="0.92.3 (2405546, 2018-03-11)">
  <metadata
     id="metadata31">
    <rdf:RDF>
      <cc:Work
         rdf:about="">
        <dc:format>image/svg+xml</dc:format>
        <dc:type
           rdf:resource="http://purl.org/dc/dcmitype/StillImage" />
      </cc:Work>
    </rdf:RDF>
  </metadata>
  <defs
     id="defs29" />
  <sodipodi:namedview
     pagecolor="#ffffff"
     bordercolor="#666666"
     borderopacity="1"
     objecttolerance="10"
     gridtolerance="10"
     guidetolerance="10"
     inkscape:pageopacity="0"
     inkscape:pageshadow="2"
     inkscape:window-width="640"
     inkscape:window-height="480"
     id="namedview27"
     showgrid="false"
     inkscape:zoom="0.23046875"
     inkscape:cx="551.5"
     inkscape:cy="512"
     inkscape:window-x="0"
     inkscape:window-y="0"
     inkscape:window-maximized="0"
     inkscape:current-layer="svg25" />
  <title
     id="title2" />
  <g
     id="icomoon-ignore"
     style="fill:#ffffff" />
  <path
     fill="#9b9b9b"
     d="M1047.631 548.572h-18.379v-384.001c0-91.429-73.517-164.572-165.415-164.572-81.351 0-139.86 60.013-146.406 147.945-42.709 8.031-74.148 44.627-74.148 89.769 0 10.971 7.351 18.285 18.379 18.285h147.037c11.028 0 18.379-7.314 18.379-18.285 0-44.642-30.744-80.934-72.729-89.501 5.492-58.106 40.57-111.643 109.489-111.643 71.68 0 128.656 56.685 128.656 127.999v384.001h-553.162c-8.314-42.174-44.968-73.142-90.119-73.142-18.379-21.943-44.111-36.572-73.517-36.572-34.92 0-66.166 20.115-80.87 49.371-14.704-7.314-31.246-12.799-47.787-12.799-45.151 0-81.805 30.969-90.119 73.142h-1.779c-31.246 0-55.138 23.771-55.138 54.857s23.893 54.857 55.138 54.857h22.088l49.592 195.658c14.704 56.685 66.166 96.915 124.981 96.915h14.704l-23.893 47.544c-5.514 9.144-1.837 20.115 7.351 23.771 1.837 1.828 5.514 1.828 7.351 1.828 7.351 0 12.865-3.658 16.542-9.144l32.163-63.999h510.031l31.246 62.171c3.677 7.314 9.19 10.971 16.542 10.971 3.677 0 5.514 0 7.351-3.658 7.351-3.658 11.028-14.629 7.351-23.771l-23.022-45.812c56.902-2.010 106.111-41.55 120.434-94.989l50.055-197.486h21.625c31.246 0 55.138-23.771 55.138-54.857 0-31.084-23.893-54.855-55.138-54.855zM788.48 219.429h-104.763c7.351-21.943 29.406-36.572 53.301-36.572s44.111 14.629 51.462 36.572zM147.037 512c16.542 0 31.246 7.314 44.111 20.115 3.677 5.486 11.028 7.314 18.379 5.486s11.028-7.314 12.865-14.629c5.514-27.429 27.569-47.544 55.138-47.544 20.218 0 38.597 9.144 47.787 27.429 3.677 7.314 12.865 10.971 20.218 9.144 1.837 0 3.677 0 5.514 0 23.893 0 44.111 14.629 51.462 36.572h-306.938c7.353-21.943 27.569-36.572 51.464-36.572zM942.868 844.801c-11.028 40.228-47.787 69.487-90.059 69.487h-599.172c-42.274 0-79.031-29.256-90.059-69.487l-47.787-186.515h871.188l-44.111 186.515zM1047.631 621.714h-992.492c-11.028 0-18.379-7.314-18.379-18.285s7.351-18.285 18.379-18.285h992.492c11.028 0 18.379 7.314 18.379 18.285s-7.351 18.285-18.379 18.285z"
     id="path5"
     style="fill:#ffffff" />
  <path
     fill="#9b9b9b"
     d="M669.538 341.333c7.877 0 13.128-8.401 13.128-21.005v-10.504c0-12.603-5.251-21.005-13.128-21.005s-13.128 8.401-13.128 21.005v10.504c0 12.603 5.251 21.005 13.128 21.005z"
     id="path7"
     style="fill:#ffffff" />
  <path
     fill="#9b9b9b"
     d="M669.538 420.103c7.877 0 13.128-8.471 13.128-16.939v-18.634c0-10.164-5.251-16.939-13.128-16.939s-13.128 6.775-13.128 16.939v18.634c0 10.162 5.251 16.939 13.128 16.939z"
     id="path9"
     style="fill:#ffffff" />
  <path
     fill="#9b9b9b"
     d="M669.538 498.872c7.877 0 13.128-8.401 13.128-21.005v-10.504c0-12.603-5.251-21.005-13.128-21.005s-13.128 8.401-13.128 21.005v10.504c0 12.601 5.251 21.005 13.128 21.005z"
     id="path11"
     style="fill:#ffffff" />
  <path
     fill="#9b9b9b"
     d="M722.051 341.333c7.877 0 13.128-8.401 13.128-21.005v-10.504c0-12.603-5.251-21.005-13.128-21.005s-13.128 8.401-13.128 21.005v10.504c0 12.603 5.251 21.005 13.128 21.005z"
     id="path13"
     style="fill:#ffffff" />
  <path
     fill="#9b9b9b"
     d="M708.923 403.163c0 10.164 5.251 16.939 13.128 16.939s13.128-8.471 13.128-16.939v-18.634c0-10.164-5.251-16.939-13.128-16.939s-13.128 6.775-13.128 16.939v18.634z"
     id="path15"
     style="fill:#ffffff" />
  <path
     fill="#9b9b9b"
     d="M708.923 477.867c0 12.603 5.251 21.005 13.128 21.005s13.128-8.401 13.128-21.005v-10.504c0-12.603-5.251-21.005-13.128-21.005s-13.128 8.401-13.128 21.005v10.504z"
     id="path17"
     style="fill:#ffffff" />
  <path
     fill="#9b9b9b"
     d="M800.821 341.333c7.877 0 13.128-8.401 13.128-21.005v-10.504c0-12.603-5.251-21.005-13.128-21.005s-13.128 8.401-13.128 21.005v10.504c-0.002 12.603 5.251 21.005 13.128 21.005z"
     id="path19"
     style="fill:#ffffff" />
  <path
     fill="#9b9b9b"
     d="M787.692 403.163c0 10.164 5.251 16.939 13.127 16.939s13.129-8.469 13.129-16.939v-18.634c0-10.164-5.251-16.939-13.127-16.939s-13.127 6.775-13.127 16.939v18.634h-0.002z"
     id="path21"
     style="fill:#ffffff" />
  <path
     fill="#9b9b9b"
     d="M787.692 477.867c0 12.603 5.251 21.005 13.128 21.005s13.128-8.401 13.128-21.005v-10.504c0-12.603-5.251-21.005-13.128-21.005s-13.128 8.401-13.128 21.005v10.504z"
     id="path23"
     style="fill:#ffffff" />
</svg>
