<?xml version="1.0" encoding="UTF-8" standalone="no"?>
<!-- Generated by IcoMoon.io -->

<svg
   xmlns:dc="http://purl.org/dc/elements/1.1/"
   xmlns:cc="http://creativecommons.org/ns#"
   xmlns:rdf="http://www.w3.org/1999/02/22-rdf-syntax-ns#"
   xmlns:svg="http://www.w3.org/2000/svg"
   xmlns="http://www.w3.org/2000/svg"
   xmlns:sodipodi="http://sodipodi.sourceforge.net/DTD/sodipodi-0.dtd"
   xmlns:inkscape="http://www.inkscape.org/namespaces/inkscape"
   version="1.1"
   width="1440"
   height="1024"
   viewBox="0 0 1440 1024"
   id="svg7"
   sodipodi:docname="bed.svg"
   inkscape:version="0.92.3 (2405546, 2018-03-11)">
  <metadata
     id="metadata13">
    <rdf:RDF>
      <cc:Work
         rdf:about="">
        <dc:format>image/svg+xml</dc:format>
        <dc:type
           rdf:resource="http://purl.org/dc/dcmitype/StillImage" />
      </cc:Work>
    </rdf:RDF>
  </metadata>
  <defs
     id="defs11" />
  <sodipodi:namedview
     pagecolor="#ffffff"
     bordercolor="#666666"
     borderopacity="1"
     objecttolerance="10"
     gridtolerance="10"
     guidetolerance="10"
     inkscape:pageopacity="0"
     inkscape:pageshadow="2"
     inkscape:window-width="640"
     inkscape:window-height="480"
     id="namedview9"
     showgrid="false"
     inkscape:zoom="0.23046875"
     inkscape:cx="720"
     inkscape:cy="512"
     inkscape:window-x="0"
     inkscape:window-y="0"
     inkscape:window-maximized="0"
     inkscape:current-layer="svg7" />
  <title
     id="title2" />
  <g
     id="icomoon-ignore"
     style="fill:#ffffff" />
  <path
     fill="#9b9b9b"
     d="M1365.685 443.479v-355.207c0-48.673-39.568-88.273-88.203-88.273h-1114.964c-48.635 0-88.203 39.6-88.203 88.273v355.21c-42.016 6.397-74.315 42.791-74.315 86.601v219.859c0 15.352 12.436 27.798 27.776 27.798h29.758v137.138c0 15.352 12.436 27.798 27.776 27.798h50.142v53.525c0 15.352 12.436 27.798 27.776 27.798s27.776-12.446 27.776-27.798v-53.525h1057.993v53.525c0 15.352 12.433 27.798 27.776 27.798s27.776-12.446 27.776-27.798v-53.525h50.142c15.344 0 27.776-12.446 27.776-27.798v-137.138h29.754c15.344 0 27.776-12.446 27.776-27.798v-219.859c0-43.81-32.298-80.207-74.315-86.605zM129.864 88.273c0-18.017 14.647-32.676 32.65-32.676h1114.964c18.003 0 32.65 14.659 32.65 32.676v354.209h-97.532c19.406-20.908 39.146-42.895 59.59-66.419 9.092-10.463 9.088-26.030-0.004-36.49-80.359-92.431-147.641-159.766-239.973-240.162-10.451-9.103-26.010-9.103-36.465 0-92.336 80.4-159.614 147.735-239.97 240.162-9.092 10.46-9.096 26.027-0.004 36.49 20.447 23.528 40.183 45.515 59.59 66.419h-190.743c19.406-20.908 39.15-42.895 59.593-66.419 9.092-10.463 9.092-26.030-0.004-36.49-80.348-92.416-147.63-159.751-239.973-240.162-10.451-9.103-26.010-9.103-36.465 0-92.344 80.411-159.626 147.746-239.973 240.162-9.096 10.46-9.096 26.027-0.004 36.49 20.447 23.525 40.187 45.511 59.593 66.419h-97.521v-354.209zM892.005 442.482c-25.558-26.256-51.375-54.155-78.33-84.662 66.4-75.193 125.19-134.029 200.305-200.466 75.115 66.434 133.905 125.274 200.309 200.466-26.951 30.508-52.771 58.406-78.33 84.662h-243.955zM304.033 442.482c-25.558-26.26-51.379-54.155-78.333-84.662 66.389-75.178 125.19-134.025 200.309-200.466 75.119 66.442 133.919 125.289 200.309 200.466-26.951 30.508-52.771 58.402-78.333 84.662h-243.951zM1326.917 887.080h-1213.83v-109.34h1213.83v109.34zM1384.447 722.144h-1328.894v-192.060c0-17.646 14.347-32.005 31.984-32.005h1264.927c17.636 0 31.984 14.359 31.984 32.005v192.060z"
     id="path5"
     style="fill:#ffffff" />
</svg>
