<svg xmlns="http://www.w3.org/2000/svg" width="102" height="96" viewBox="0 0 102 96">
  <g fill="#616067" fill-rule="evenodd">
    <path d="M74.5207342 32.4555136C74.8681967 32.8183697 75.323419 33 75.7786413 33 76.2336701 33 76.6890858 32.8183697 77.0365483 32.4555136L95.4789514 13.1743841C96.1736829 12.4480651 96.1736829 11.2707043 95.4789514 10.5445875 94.7842199 9.81847082 93.6580623 9.81847082 92.9635242 10.5445875L74.5209277 29.8255148C73.8263897 30.552036 73.8263897 31.7291946 74.5207342 32.4555136M68.5207342 27.4555136C68.8681967 27.8183697 69.323419 28 69.7786413 28 70.2336701 28 70.6890858 27.8183697 71.0365483 27.4555136L89.4789514 8.17438409C90.1736829 7.44806511 90.1736829 6.27070426 89.4789514 5.54458754 88.7842199 4.81847082 87.6580623 4.81847082 86.9635242 5.54458754L68.5209277 24.8255148C67.8263897 25.552036 67.8263897 26.7291946 68.5207342 27.4555136"/>
    <path d="M86.0637148,81.6728654 C86.0736148,81.6818205 86.0837128,81.6907756 86.0938108,81.6995272 C86.2270649,81.8159434 86.3440829,81.9262539 86.452785,82.0377855 C88.7244401,84.3730301 88.7244401,88.1726363 86.452983,90.5076773 C84.1809319,92.8425149 80.4846661,92.8425149 78.212021,90.5066597 C78.1045069,90.3961457 77.9969929,90.275659 77.8835388,90.1386867 C77.8752228,90.1281034 77.8663128,90.1179272 77.8576008,90.1077509 L51.333904,59.391164 L55.8760262,54.1310632 L86.0637148,81.6728654 Z M78.0358009,41.279077 L101.466736,17.1943486 C102.177755,16.4632872 102.177755,15.2785688 101.466736,14.5479145 C100.75552,13.8176672 99.6031593,13.8170566 98.892141,14.5479145 L75.4616016,38.6326429 C72.5747602,41.5996287 68.1609421,42.3781114 64.4785363,40.5704033 C63.745936,40.2109784 62.8711715,40.3927261 62.3324133,41.0167334 L54.3708294,50.2370215 C54.3676614,50.2404814 54.3640974,50.2435343 54.3609294,50.2471977 C54.3577614,50.2510647 54.3553854,50.2547282 54.3522174,50.2585951 L19.9423748,90.1079544 C19.9334647,90.1181307 19.9247527,90.1283069 19.9162387,90.1388902 C19.8029827,90.2758625 19.6956666,90.3961457 19.5871626,90.5078809 C17.3151115,92.8431254 13.6184497,92.8429219 11.3473886,90.5078809 C10.2469041,89.376893 9.64082576,87.8726406 9.64082576,86.2729349 C9.64082576,84.6732293 10.2469041,83.1693839 11.3493686,82.0361573 C11.4551006,81.9268645 11.5719207,81.816961 11.7063628,81.6995272 C11.7164608,81.6907756 11.7263608,81.6818205 11.7364588,81.6728654 L33.2485752,62.0459427 C34.0005796,61.3598602 34.0690876,60.1773806 33.4018273,59.4043931 C32.7343689,58.6312021 31.5835924,58.5605789 30.831984,59.2468648 L9.33392561,78.860762 C9.12840152,79.0408815 8.94445943,79.2153023 8.77299134,79.3917584 C6.98485248,81.2297917 6,83.6735151 6,86.2729349 C6,88.8721513 6.98465448,91.3162817 8.77279334,93.1541115 C10.6187482,95.0513705 13.0430614,96 15.4675726,95.999593 C17.8912918,95.999593 20.3158029,95.0513705 22.1605698,93.1551291 C22.3352059,92.9758237 22.504694,92.786749 22.6785381,92.5773219 L48.8998888,62.2101872 L75.1220315,92.577729 C75.2954796,92.7869526 75.4649676,92.9764342 75.6384157,93.1545185 C77.4841726,95.051574 79.9082878,96 82.332601,96 C84.7571121,96 87.1816233,95.0513705 89.0273802,93.154315 C92.718102,89.3600005 92.718102,83.18648 89.0283702,79.3931831 C88.8541301,79.2136741 88.669792,79.0394568 88.4664459,78.8609655 L58.2930133,51.3323925 L64.1963862,44.4953808 C68.9796725,46.2373504 74.3918071,45.0241385 78.0358009,41.279077 L78.0358009,41.279077 Z"/>
    <path d="M6.38260615,11.5242565 C9.05787822,8.77086256 13.3961038,7.9971379 18.5972312,9.34485073 C24.1877118,10.7934488 30.1187283,14.5262024 35.2975222,19.8560344 C40.1428953,24.8423278 41.0172603,32.5124531 37.4245375,38.508209 C36.9612663,39.2813235 37.1049515,40.2852943 37.7648757,40.8883683 L45.450749,47.9090449 L41.5305346,51.4902673 L34.9156793,43.8207522 C34.3298706,43.1416074 33.3539181,42.9933306 32.6028813,43.4705014 C26.7768123,47.1676605 19.3237605,46.2680327 14.4783874,41.2813325 C9.29939584,35.951704 5.67208582,29.8483507 4.26448478,24.0948414 C2.95511145,18.7420255 3.70713643,14.2774471 6.38260615,11.5242565 Z M33.1687282,47.4290265 C33.1687282,47.4290265 39.9328027,55.271633 40.018579,55.3712979 C40.3776931,55.7876529 40.8767373,56 41.3783508,56 C41.80743,56 42.2378927,55.8446042 42.5839625,55.5283209 L58.7640618,40.7488375 C59.3698322,40.1951891 59.5463259,39.2963749 59.197489,38.5442104 C57.4416441,34.7606073 58.1978196,30.2270771 61.0792315,27.2621496 L84.4677027,3.19227525 C85.1774324,2.46167089 85.1774324,1.27789658 84.4677027,0.547495621 C83.7579729,-0.18249854 82.6075032,-0.18249854 81.897971,0.547495621 L58.5096975,24.61737 C54.8719125,28.3607003 53.6937729,33.9199648 55.3853844,38.8342554 L48.188278,45.4086776 L41.2712293,39.0901297 C44.8481408,31.8467326 43.5425226,23.0520217 37.8674515,17.2114582 C32.2311181,11.4107606 25.7026321,7.32897663 19.4846404,5.71766045 C12.9935086,4.03617209 7.42832605,5.15872372 3.81287451,8.8794769 C0.197225329,12.6004335 -0.893754417,18.3285181 0.740541148,25.0080969 C2.30605755,31.4067835 6.27251997,38.1254146 11.909051,43.9257054 C17.5843197,49.7664723 26.1297348,51.1105239 33.1687282,47.4290265 L33.1687282,47.4290265 Z"/>
  </g>
</svg>
