<svg xmlns="http://www.w3.org/2000/svg" width="89" height="96" viewBox="0 0 89 96">
  <path fill="#616067" fill-rule="evenodd" d="M197.191255,93.1578049 L106.808557,93.1578049 L106.808557,88.5660851 L197.191255,88.5660851 L197.191255,93.1578049 Z M121.547341,33.6206488 L117.317724,33.6206488 L151.999906,2.99419463 L186.682089,33.6206488 L121.547341,33.6206488 Z M166.976252,4.84389821 L180.457476,4.84389821 L180.457476,7.40168403 L166.976439,7.40168403 L166.976439,4.84389821 L166.976252,4.84389821 Z M197.659255,85.7240798 L183.856657,85.7240798 L183.856657,36.4626542 L187.930461,36.4626542 C188.915772,36.4626542 189.77602,35.8594941 190.121957,34.9258197 C190.467894,33.9921454 190.211769,32.9653123 189.469271,32.309786 L181.624661,25.3824573 C181.626536,25.3517206 181.629348,25.3211736 181.629348,25.2898678 L181.629348,21.6967109 C181.629348,20.9119767 181.000662,20.2756134 180.224976,20.2756134 C179.44929,20.2756134 178.820604,20.9117869 178.820604,21.6967109 L178.820604,22.9064462 L168.613311,13.8928174 L168.613311,10.2436894 L178.820604,10.2436894 L178.820604,12.3973446 C178.820604,13.1820789 179.44929,13.8184422 180.224976,13.8184422 C181.000662,13.8184422 181.629348,13.1822686 181.629348,12.3973446 L181.629348,10.1338342 C182.577159,9.83083111 183.26622,8.93320596 183.26622,7.87525672 L183.26622,4.37013579 C183.26622,3.06420597 182.216222,2.00170315 180.925662,2.00170315 L166.508253,2.00170315 C165.217693,2.00170315 164.167695,3.06420597 164.167695,4.37013579 L164.167695,7.87525672 C164.167695,8.93320596 164.856944,9.83102085 165.804754,10.1338342 L165.804754,11.4126322 L153.538903,0.581174818 C152.661405,-0.193693314 151.33822,-0.193693314 150.460909,0.580985085 L114.530354,32.3099757 C113.788043,32.965502 113.531919,33.9925248 113.877856,34.9260095 C114.223793,35.8594941 115.084041,36.4628439 116.069351,36.4628439 L120.143156,36.4628439 L120.143156,42.7391999 C120.143156,43.5239341 120.771842,44.1602974 121.547528,44.1602974 C122.323027,44.1602974 122.9519,43.5241238 122.9519,42.7391999 L122.9519,36.4628439 L181.048287,36.4628439 L181.048287,85.7242695 L122.951713,85.7242695 L122.951713,52.8828764 C122.951713,52.0981422 122.323027,51.4617789 121.547341,51.4617789 C120.771842,51.4617789 120.142968,52.0979524 120.142968,52.8828764 L120.142968,85.7238901 L106.340558,85.7238901 C105.049998,85.7240798 104,86.7865826 104,88.0925125 L104,93.6315674 C104,94.9374972 105.049998,96 106.340558,96 L197.659442,96 C198.950002,96 200,94.9374972 200,93.6315674 L200,88.0925125 C199.999813,86.7865826 198.949815,85.7240798 197.659255,85.7240798 Z" transform="translate(-104)"/>
</svg>
