<?xml version="1.0" encoding="UTF-8" standalone="no"?>
<!-- Generated by IcoMoon.io -->

<svg
   xmlns:dc="http://purl.org/dc/elements/1.1/"
   xmlns:cc="http://creativecommons.org/ns#"
   xmlns:rdf="http://www.w3.org/1999/02/22-rdf-syntax-ns#"
   xmlns:svg="http://www.w3.org/2000/svg"
   xmlns="http://www.w3.org/2000/svg"
   xmlns:sodipodi="http://sodipodi.sourceforge.net/DTD/sodipodi-0.dtd"
   xmlns:inkscape="http://www.inkscape.org/namespaces/inkscape"
   version="1.1"
   width="1024"
   height="1024"
   viewBox="0 0 1024 1024"
   id="svg13"
   sodipodi:docname="plans.svg"
   inkscape:version="0.92.3 (2405546, 2018-03-11)">
  <metadata
     id="metadata19">
    <rdf:RDF>
      <cc:Work
         rdf:about="">
        <dc:format>image/svg+xml</dc:format>
        <dc:type
           rdf:resource="http://purl.org/dc/dcmitype/StillImage" />
      </cc:Work>
    </rdf:RDF>
  </metadata>
  <defs
     id="defs17" />
  <sodipodi:namedview
     pagecolor="#ffffff"
     bordercolor="#666666"
     borderopacity="1"
     objecttolerance="10"
     gridtolerance="10"
     guidetolerance="10"
     inkscape:pageopacity="0"
     inkscape:pageshadow="2"
     inkscape:window-width="640"
     inkscape:window-height="480"
     id="namedview15"
     showgrid="false"
     inkscape:zoom="0.23046875"
     inkscape:cx="512"
     inkscape:cy="512"
     inkscape:window-x="0"
     inkscape:window-y="0"
     inkscape:window-maximized="0"
     inkscape:current-layer="svg13" />
  <title
     id="title2" />
  <g
     id="icomoon-ignore"
     style="fill:#ffffff" />
  <path
     fill="#9b9b9b"
     d="M1006.663 89.252c9.576 0 17.337-7.763 17.337-17.337v-54.579c0-9.574-7.759-17.337-17.337-17.337h-784.527c-9.574 0-17.337 7.763-17.337 17.337v784.527c0 9.574 7.763 17.337 17.337 17.337h784.523c9.576 0 17.337-7.763 17.337-17.337v-672.161c0-9.574-7.759-17.337-17.337-17.337-9.576 0-17.337 7.763-17.337 17.337v297.029h-68.85c-9.576 0-17.337 7.763-17.337 17.337s7.759 17.337 17.337 17.337h68.85v323.124h-495.318v-83.885c0-9.574-7.763-17.337-17.337-17.337s-17.337 7.763-17.337 17.337v83.885h-219.858v-749.855h219.86v541.15c0 9.574 7.763 17.337 17.337 17.337s17.337-7.763 17.337-17.337v-114.419h308.583c9.576 0 17.337-7.763 17.337-17.337s-7.759-17.337-17.337-17.337h-308.585v-392.058h495.322v37.242c0 9.574 7.759 17.337 17.337 17.337z"
     id="path5"
     style="fill:#ffffff" />
  <path
     fill="#9b9b9b"
     d="M150.899 94.697l-58.937-86.961c-3.261-4.811-8.995-7.737-15.162-7.737-6.169 0-11.901 2.926-15.162 7.737l-58.939 86.961c-3.428 5.059-3.603 11.428-0.453 16.638s9.128 8.442 15.615 8.442h41.078v68.614c0 9.061 7.998 16.408 17.861 16.408s17.861-7.347 17.861-16.408v-68.614h41.078c6.486 0 12.465-3.231 15.615-8.442s2.976-11.581-0.455-16.638zM50.022 86.961l26.776-39.507 26.776 39.507h-53.553z"
     id="path7"
     style="fill:#ffffff" />
  <path
     fill="#9b9b9b"
     d="M151.352 702.056c-3.15-5.482-9.128-8.881-15.615-8.881h-41.078v-445.51c0-9.534-7.998-17.265-17.861-17.265s-17.861 7.731-17.861 17.265v445.508h-41.076c-6.486 0-12.465 3.399-15.615 8.883s-2.976 12.185 0.453 17.506l58.938 91.498c3.261 5.062 8.993 8.14 15.162 8.14 6.171 0 11.903-3.078 15.162-8.14l58.938-91.498c3.433-5.325 3.607-12.024 0.455-17.506zM76.8 769.273l-26.779-41.569h53.553l-26.775 41.569z"
     id="path9"
     style="fill:#ffffff" />
  <path
     fill="#9b9b9b"
     d="M1015.826 932.038l-91.88-58.94c-5.346-3.429-12.075-3.601-17.579-0.453-5.505 3.15-8.918 9.129-8.918 15.615v41.080h-566.096v-41.080c0-6.487-3.413-12.465-8.918-15.615-5.505-3.148-12.232-2.976-17.581 0.453l-91.88 58.94c-5.083 3.261-8.174 8.993-8.174 15.162s3.091 11.902 8.174 15.162l91.88 58.94c2.799 1.796 5.98 2.697 9.162 2.697 2.896 0 5.795-0.746 8.417-2.245 5.507-3.15 8.92-9.129 8.92-15.615v-41.080h566.094v41.080c0 6.487 3.417 12.465 8.918 15.615 2.624 1.501 5.522 2.245 8.419 2.245 3.183 0 6.363-0.903 9.162-2.697l91.88-58.94c5.083-3.261 8.174-8.993 8.174-15.162 0-6.171-3.091-11.902-8.174-15.162zM296.68 973.978l-41.742-26.778 41.742-26.778v53.555zM932.12 973.978v-53.555l41.746 26.778-41.746 26.778z"
     id="path11"
     style="fill:#ffffff" />
</svg>
