<?xml version="1.0" encoding="UTF-8" standalone="no"?>
<!-- Generated by IcoMoon.io -->

<svg
   xmlns:dc="http://purl.org/dc/elements/1.1/"
   xmlns:cc="http://creativecommons.org/ns#"
   xmlns:rdf="http://www.w3.org/1999/02/22-rdf-syntax-ns#"
   xmlns:svg="http://www.w3.org/2000/svg"
   xmlns="http://www.w3.org/2000/svg"
   xmlns:sodipodi="http://sodipodi.sourceforge.net/DTD/sodipodi-0.dtd"
   xmlns:inkscape="http://www.inkscape.org/namespaces/inkscape"
   version="1.1"
   width="1720"
   height="1024"
   viewBox="0 0 1720 1024"
   id="svg15"
   sodipodi:docname="sea-waves.svg"
   inkscape:version="0.92.3 (2405546, 2018-03-11)">
  <metadata
     id="metadata21">
    <rdf:RDF>
      <cc:Work
         rdf:about="">
        <dc:format>image/svg+xml</dc:format>
        <dc:type
           rdf:resource="http://purl.org/dc/dcmitype/StillImage" />
      </cc:Work>
    </rdf:RDF>
  </metadata>
  <defs
     id="defs19" />
  <sodipodi:namedview
     pagecolor="#ffffff"
     bordercolor="#666666"
     borderopacity="1"
     objecttolerance="10"
     gridtolerance="10"
     guidetolerance="10"
     inkscape:pageopacity="0"
     inkscape:pageshadow="2"
     inkscape:window-width="640"
     inkscape:window-height="480"
     id="namedview17"
     showgrid="false"
     inkscape:zoom="0.23046875"
     inkscape:cx="860"
     inkscape:cy="512"
     inkscape:window-x="0"
     inkscape:window-y="0"
     inkscape:window-maximized="0"
     inkscape:current-layer="svg15" />
  <title
     id="title2" />
  <g
     id="icomoon-ignore" />
  <path
     fill="#9b9b9b"
     d="M1486.411 163.84c-61.946 0-93.499-32.457-121.339-61.095-25.136-25.862-44.994-46.289-87.425-46.289s-62.289 20.428-87.43 46.289c-27.836 28.637-59.389 61.095-121.339 61.095s-93.499-32.457-121.339-61.095c-25.136-25.862-44.989-46.289-87.421-46.289-42.428 0-62.281 20.428-87.417 46.289-27.836 28.637-59.389 61.095-121.339 61.095-61.942 0-93.486-32.457-121.322-61.095-25.132-25.862-44.985-46.289-87.409-46.289-42.428 0-62.281 20.428-87.417 46.289-27.836 28.637-59.389 61.095-121.335 61.095-61.95 0-93.503-32.457-121.343-61.095-25.136-25.862-44.989-46.289-87.421-46.289-13.868 0-25.115-12.637-25.115-28.228 0-15.587 11.247-28.228 25.115-28.228 61.946 0 93.499 32.457 121.339 61.095 25.136 25.862 44.994 46.289 87.425 46.289 42.428 0 62.281-20.428 87.417-46.285 27.836-28.642 59.389-61.099 121.335-61.099 61.942 0 93.491 32.462 121.326 61.099 25.132 25.862 44.981 46.285 87.404 46.285 42.432 0 62.285-20.428 87.421-46.285 27.836-28.642 59.389-61.099 121.335-61.099 61.95 0 93.499 32.457 121.339 61.099 25.136 25.857 44.994 46.285 87.421 46.285 42.436 0 62.289-20.428 87.425-46.285 27.84-28.642 59.393-61.099 121.343-61.099s93.503 32.457 121.343 61.099c25.136 25.857 44.989 46.285 87.421 46.285 42.44 0 62.298-20.428 87.442-46.289 27.84-28.637 59.397-61.095 121.352-61.095 13.868 0 25.115 12.641 25.115 28.228 0 15.591-11.247 28.228-25.115 28.228-42.44 0-62.298 20.428-87.442 46.289-27.84 28.637-59.393 61.095-121.352 61.095z"
     id="path5"
     style="fill:#ffffff" />
  <path
     fill="#9b9b9b"
     d="M1486.411 368.64c-61.946 0-93.499-32.457-121.339-61.095-25.136-25.862-44.994-46.289-87.425-46.289s-62.289 20.428-87.43 46.289c-27.836 28.637-59.389 61.095-121.339 61.095s-93.499-32.457-121.339-61.095c-25.136-25.862-44.989-46.289-87.421-46.289-42.428 0-62.281 20.428-87.417 46.289-27.836 28.637-59.389 61.095-121.339 61.095-61.942 0-93.486-32.457-121.322-61.095-25.132-25.862-44.985-46.289-87.409-46.289-42.428 0-62.281 20.428-87.417 46.289-27.836 28.637-59.389 61.095-121.335 61.095-61.95 0-93.503-32.457-121.343-61.095-25.136-25.862-44.989-46.289-87.421-46.289-13.868 0-25.115-12.637-25.115-28.228 0-15.587 11.247-28.228 25.115-28.228 61.946 0 93.499 32.457 121.339 61.095 25.136 25.862 44.994 46.289 87.425 46.289 42.428 0 62.281-20.428 87.417-46.285 27.836-28.642 59.389-61.099 121.335-61.099 61.942 0 93.491 32.462 121.326 61.099 25.132 25.862 44.981 46.285 87.404 46.285 42.432 0 62.285-20.428 87.421-46.285 27.836-28.642 59.389-61.099 121.335-61.099 61.95 0 93.499 32.457 121.339 61.099 25.136 25.857 44.994 46.285 87.421 46.285 42.436 0 62.289-20.428 87.425-46.285 27.84-28.642 59.393-61.099 121.343-61.099s93.503 32.457 121.343 61.099c25.136 25.857 44.989 46.285 87.421 46.285 42.44 0 62.298-20.428 87.442-46.289 27.84-28.637 59.397-61.095 121.352-61.095 13.868 0 25.115 12.641 25.115 28.228 0 15.591-11.247 28.228-25.115 28.228-42.44 0-62.298 20.428-87.442 46.289-27.84 28.637-59.393 61.095-121.352 61.095z"
     id="path7"
     style="fill:#ffffff" />
  <path
     fill="#9b9b9b"
     d="M1486.411 614.4c-61.946 0-93.499-32.457-121.339-61.095-25.136-25.862-44.994-46.289-87.425-46.289s-62.289 20.428-87.43 46.285c-27.836 28.642-59.389 61.099-121.339 61.099s-93.499-32.457-121.339-61.099c-25.136-25.857-44.989-46.285-87.421-46.285-42.428 0-62.281 20.428-87.417 46.285-27.836 28.642-59.389 61.099-121.339 61.099-61.942 0-93.486-32.457-121.322-61.099-25.132-25.857-44.985-46.285-87.409-46.285-42.428 0-62.281 20.428-87.417 46.285-27.836 28.642-59.389 61.099-121.335 61.099-61.95 0-93.503-32.457-121.343-61.099-25.136-25.857-44.994-46.285-87.421-46.285-13.868 0-25.115-12.641-25.115-28.228 0-15.591 11.247-28.228 25.115-28.228 61.946 0 93.499 32.457 121.339 61.095 25.136 25.862 44.994 46.289 87.425 46.289 42.428 0 62.281-20.428 87.417-46.289 27.836-28.637 59.389-61.095 121.335-61.095 61.942 0 93.491 32.457 121.326 61.099 25.132 25.857 44.981 46.285 87.404 46.285 42.432 0 62.285-20.428 87.421-46.289 27.836-28.637 59.389-61.095 121.335-61.095 61.95 0 93.499 32.457 121.339 61.095 25.136 25.862 44.994 46.289 87.421 46.289 42.436 0 62.289-20.428 87.425-46.289 27.84-28.637 59.393-61.095 121.343-61.095s93.503 32.457 121.343 61.095c25.136 25.862 44.989 46.289 87.421 46.289 42.44 0 62.298-20.428 87.442-46.289 27.84-28.637 59.397-61.095 121.352-61.095 13.868 0 25.115 12.637 25.115 28.228 0 15.587-11.247 28.228-25.115 28.228-42.44 0-62.298 20.428-87.442 46.289-27.84 28.637-59.393 61.095-121.352 61.095z"
     id="path9"
     style="fill:#ffffff" />
  <path
     fill="#9b9b9b"
     d="M1486.411 819.2c-61.946 0-93.499-32.457-121.339-61.095-25.136-25.862-44.994-46.289-87.425-46.289s-62.289 20.428-87.43 46.285c-27.836 28.642-59.389 61.099-121.339 61.099s-93.499-32.457-121.339-61.099c-25.136-25.857-44.989-46.285-87.421-46.285-42.428 0-62.281 20.428-87.417 46.285-27.836 28.642-59.389 61.099-121.339 61.099-61.942 0-93.486-32.457-121.322-61.099-25.132-25.857-44.985-46.285-87.409-46.285-42.428 0-62.281 20.428-87.417 46.285-27.836 28.642-59.389 61.099-121.335 61.099-61.95 0-93.503-32.457-121.343-61.099-25.136-25.857-44.994-46.285-87.421-46.285-13.868 0-25.115-12.641-25.115-28.228 0-15.591 11.247-28.228 25.115-28.228 61.946 0 93.499 32.457 121.339 61.095 25.136 25.862 44.994 46.289 87.425 46.289 42.428 0 62.281-20.428 87.417-46.289 27.836-28.637 59.389-61.095 121.335-61.095 61.942 0 93.491 32.457 121.326 61.099 25.132 25.857 44.981 46.285 87.404 46.285 42.432 0 62.285-20.428 87.421-46.289 27.836-28.637 59.389-61.095 121.335-61.095 61.95 0 93.499 32.457 121.339 61.095 25.136 25.862 44.994 46.289 87.421 46.289 42.436 0 62.289-20.428 87.425-46.289 27.84-28.637 59.393-61.095 121.343-61.095s93.503 32.457 121.343 61.095c25.136 25.862 44.989 46.289 87.421 46.289 42.44 0 62.298-20.428 87.442-46.289 27.84-28.637 59.397-61.095 121.352-61.095 13.868 0 25.115 12.637 25.115 28.228 0 15.587-11.247 28.228-25.115 28.228-42.44 0-62.298 20.428-87.442 46.289-27.84 28.637-59.393 61.095-121.352 61.095z"
     id="path11"
     style="fill:#ffffff" />
  <path
     fill="#9b9b9b"
     d="M1486.411 1024c-61.946 0-93.499-32.457-121.339-61.095-25.136-25.862-44.994-46.289-87.425-46.289s-62.289 20.428-87.43 46.285c-27.836 28.642-59.389 61.099-121.339 61.099s-93.499-32.457-121.339-61.099c-25.136-25.857-44.989-46.285-87.421-46.285-42.428 0-62.281 20.428-87.417 46.285-27.836 28.642-59.389 61.099-121.339 61.099-61.942 0-93.486-32.457-121.322-61.099-25.132-25.857-44.985-46.285-87.409-46.285-42.428 0-62.281 20.428-87.417 46.285-27.836 28.642-59.389 61.099-121.335 61.099-61.95 0-93.503-32.457-121.343-61.099-25.136-25.857-44.994-46.285-87.421-46.285-13.868 0-25.115-12.641-25.115-28.228 0-15.596 11.247-28.228 25.115-28.228 61.946 0 93.499 32.457 121.339 61.095 25.136 25.862 44.994 46.289 87.425 46.289 42.428 0 62.281-20.428 87.417-46.289 27.836-28.637 59.389-61.095 121.335-61.095 61.942 0 93.491 32.457 121.326 61.099 25.132 25.857 44.981 46.285 87.404 46.285 42.432 0 62.285-20.428 87.421-46.289 27.836-28.637 59.389-61.095 121.335-61.095 61.95 0 93.499 32.457 121.339 61.095 25.136 25.862 44.994 46.289 87.421 46.289 42.436 0 62.289-20.428 87.425-46.289 27.84-28.637 59.393-61.095 121.343-61.095s93.503 32.457 121.343 61.095c25.136 25.862 44.989 46.289 87.421 46.289 42.44 0 62.298-20.428 87.442-46.289 27.84-28.637 59.397-61.095 121.352-61.095 13.868 0 25.115 12.632 25.115 28.228 0 15.587-11.247 28.228-25.115 28.228-42.44 0-62.298 20.428-87.442 46.289-27.84 28.637-59.393 61.095-121.352 61.095z"
     id="path13"
     style="fill:#ffffff" />
</svg>
