<svg xmlns="http://www.w3.org/2000/svg" xmlns:xlink="http://www.w3.org/1999/xlink" width="133" height="114" viewBox="0 0 133 114">
  <defs>
    <polygon id="ikona_solarne-a" points=".092 .415 48.72 .415 48.72 3.897 .092 3.897"/>
  </defs>
  <g fill="none" fill-rule="evenodd">
    <path fill="#5A5A5C" d="M32.1292928 23.5C32.1292928 27.7796348 28.4829693 31.2599719 24.0007725 31.2599719 19.5170307 31.2599719 15.8707072 27.7796348 15.8707072 23.5 15.8707072 19.2218399 19.5170307 15.7415028 24.0007725 15.7415028 28.4829693 15.7415028 32.1292928 19.2218399 32.1292928 23.5zM13 23.5C13 29.2897472 17.9348971 34 24.0007725 34 30.0651029 34 35 29.2897472 35 23.5 35 17.7117275 30.0651029 13 24.0007725 13 17.9348971 13 13 17.7117275 13 23.5L13 23.5zM23.013611 36C22.9896112 37.8241277 23.0024111 39.6737479 23.013611 41.5233681 23.0248109 43.3474958 23.0376108 45.1716235 23.013611 46.9702588L25.986389 47C26.0103888 45.185786 25.9975889 43.3474958 25.986389 41.5077894 25.9751891 39.6737479 25.9639892 37.8382902 25.986389 36.0311575L23.013611 36M25.9870659 11C26.0094684 9.17705382 25.9982672 7.32719547 25.9870659 5.47733711 25.9742645 3.6529745 25.9630633 1.8286119 25.9870659.0283286119L23.0123411 0C22.9899387 1.81303116 23.0027401 3.6529745 23.0139413 5.49150142 23.0251425 7.32719547 23.0363438 9.16147309 23.0123411 10.970255L25.9870659 11"/>
    <g transform="translate(0 22)">
      <mask id="ikona_solarne-b" fill="#fff">
        <use xlink:href="#ikona_solarne-a"/>
      </mask>
      <path fill="#5A5A5C" d="M36.8280937 3.88333333C37.6656875 3.89166667 38.5094062 3.89666667 39.3561875 3.89666667 40.5000312 3.89666667 41.65 3.89 42.7999687 3.88333333 44.7722187 3.87 46.7429375 3.85833333 48.6891562 3.88333333L48.7197812.785C46.7613125.763333333 44.7722187.775 42.783125.786666667 40.8016875.798333333 38.8187187.811666667 36.86025.785L36.8280937 3.88333333M11.8932188.426666667C9.93475.406666667 7.94565625.416666667 5.95503125.428333333 3.97359375.44 1.990625.451666667.0336875.426666667L0 3.525C.83759375 3.535 1.6813125 3.53833333 2.52809375 3.53833333 3.6719375 3.53833333 4.82190625 3.53166667 5.971875 3.525 7.944125 3.51166667 9.91484375 3.5 11.8610625 3.525L11.8932188.426666667" mask="url(#ikona_solarne-b)"/>
    </g>
    <path fill="#5A5A5C" d="M37.5714286 12.9594475C39.0454545 11.6106377 40.5211039 10.2603585 42 8.9526888L39.8912338 7C38.3993506 8.31795475 36.913961 9.67998825 35.4269481 11.0390832 33.9529221 12.3893623 32.4772727 13.7381722 31 15.0473112L33.1087662 17C34.599026 15.680576 36.086039 14.3200118 37.5714286 12.9594475M17 34.9524019L14.8912338 33C13.3977273 34.3221684 11.9074675 35.6854708 10.4188312 37.0473042 8.94642857 38.3944469 7.47564935 39.7415895 6 41.046129L8.10714286 43C9.59577922 41.6837079 11.0795455 40.3248127 12.5633117 38.9673865 14.0405844 37.6158366 15.5178571 36.2628177 17 34.9524019M34.1479577 32L32 33.9170602C33.4513664 35.2718418 34.9479871 36.6236718 36.4446077 37.974026 37.9282986 39.3155254 39.4136056 40.655549 40.8520423 42L43 40.0829398C41.5486336 38.7281582 40.0520129 37.3763282 38.5553923 36.025974 37.0700852 34.6844746 35.5863944 33.344451 34.1479577 32M14.8520423 16L17 14.0829398C15.551866 12.729634 14.0584778 11.3807556 12.5650896 10.033353 11.0765501 8.6903778 9.5896268 7.3474026 8.14795768 6L6 7.91706021C7.45459888 9.27479339 8.95283573 10.6280992 10.454305 11.9828808 11.9347634 13.3199528 13.4168381 14.6585006 14.8520423 16M129.644949 58.601828L97.7925656 90.6888212 15.9027829 90.6888212 15.9027829 88.6294821 96.7291412 88.6294821 129.596126 54.7036325 129.644949 58.601828zM54.437805 111.213218L70.2274452 111.213218 70.2274452 93.4741036 54.437805 93.4741036 54.437805 111.213218zM27.2495366 77.2423717L42.1084898 77.2543708 33.6407631 85.8426998 18.722307 85.8426998 27.2495366 77.2423717zM51.4809664 52.8047809L66.0103648 53.0132646 56.5326138 62.6260136 41.7529978 62.6155144 51.4809664 52.8047809zM106.487624 74.5170846L89.8054396 74.5035857 98.5905153 65.4442934 115.265071 65.4562925 106.487624 74.5170846zM87.1049214 77.2873682L103.790157 77.3008671 95.5131451 85.8426998 78.8096007 85.8426998 87.1049214 77.2873682zM67.4216526 77.2738692L83.1929842 77.2843684 74.8961378 85.8426998 59.0622518 85.8426998 67.4216526 77.2738692zM63.4975097 77.2708695L55.1365832 85.8426998 37.5893175 85.8426998 46.0539927 77.2573705 63.4975097 77.2708695zM86.8516524 53.3237403L77.7629591 62.6425123 60.476591 62.6290134 69.884159 53.0882587 86.8516524 53.3237403zM94.6770525 65.4412936L85.8935025 74.5005859 70.1359023 74.4885868 78.9728523 65.4292946 94.6770525 65.4412936zM81.6886277 62.6455121L90.7269724 53.3777361 106.164172 53.5937192 97.376045 62.6560112 81.6886277 62.6455121zM44.8547795 74.4690884L30.0095578 74.4600891 38.9929767 65.3992969 53.7878497 65.4097961 44.8547795 74.4690884zM57.7333527 65.4127959L75.0487094 65.4262948 66.2117594 74.4855871 48.8002824 74.4720881 57.7333527 65.4127959zM126.476036 53.8846965L117.962538 62.67251 101.289508 62.659011 110.028812 53.647715 126.476036 53.8846965zM133 51.190907L112.694239 50.8999297 112.695765 50.8969299 108.318484 50.8369346 50.3015875 50 12 88.6294821 13.0680016 88.6294821 13.0680016 93.4741036 51.601498 93.4741036 51.601498 111.213218 37.7205291 111.213218 37.7205291 114 86.4107204 114 86.4107204 111.213218 73.0607008 111.213218 73.0607008 93.4741036 98.9887274 93.4741036 132.494988 59.7207406 132.394291 51.8148582 133 51.190907 133 51.190907z"/>
  </g>
</svg>
