<?xml version="1.0" encoding="UTF-8" standalone="no"?>
<!-- Generated by IcoMoon.io -->

<svg
   xmlns:dc="http://purl.org/dc/elements/1.1/"
   xmlns:cc="http://creativecommons.org/ns#"
   xmlns:rdf="http://www.w3.org/1999/02/22-rdf-syntax-ns#"
   xmlns:svg="http://www.w3.org/2000/svg"
   xmlns="http://www.w3.org/2000/svg"
   xmlns:sodipodi="http://sodipodi.sourceforge.net/DTD/sodipodi-0.dtd"
   xmlns:inkscape="http://www.inkscape.org/namespaces/inkscape"
   version="1.1"
   width="999"
   height="1024"
   viewBox="0 0 999 1024"
   id="svg11"
   sodipodi:docname="team2.svg"
   inkscape:version="0.92.3 (2405546, 2018-03-11)">
  <metadata
     id="metadata17">
    <rdf:RDF>
      <cc:Work
         rdf:about="">
        <dc:format>image/svg+xml</dc:format>
        <dc:type
           rdf:resource="http://purl.org/dc/dcmitype/StillImage" />
        <dc:title></dc:title>
      </cc:Work>
    </rdf:RDF>
  </metadata>
  <defs
     id="defs15" />
  <sodipodi:namedview
     pagecolor="#ffffff"
     bordercolor="#666666"
     borderopacity="1"
     objecttolerance="10"
     gridtolerance="10"
     guidetolerance="10"
     inkscape:pageopacity="0"
     inkscape:pageshadow="2"
     inkscape:window-width="640"
     inkscape:window-height="480"
     id="namedview13"
     showgrid="false"
     inkscape:zoom="0.23046875"
     inkscape:cx="499.5"
     inkscape:cy="512"
     inkscape:window-x="0"
     inkscape:window-y="0"
     inkscape:window-maximized="0"
     inkscape:current-layer="svg11" />
  <g
     id="icomoon-ignore"
     style="fill:#ffffff" />
  <path
     fill="#9b9b9b"
     d="M899.122 674.341c0 13.794-11.182 24.976-24.976 24.976s-24.976-11.182-24.976-24.976c0-13.794 11.182-24.976 24.976-24.976s24.976 11.182 24.976 24.976z"
     id="path5"
     style="fill:#ffffff" />
  <path
     fill="#9b9b9b"
     d="M149.854 674.341c0 13.794-11.182 24.976-24.976 24.976s-24.976-11.182-24.976-24.976c0-13.794 11.182-24.976 24.976-24.976s24.976 11.182 24.976 24.976z"
     id="path7"
     style="fill:#ffffff" />
  <path
     fill="#9b9b9b"
     d="M978.901 983.992h-172.759l-1.056-491.544c-0.024-11.034-9.027-19.96-20.119-19.96-0.014 0-0.030 0-0.044 0-11.113 0.024-20.101 8.998-20.077 20.046l1.056 491.458h-58.439l-0.517-218.696c-0.026-11.032-9.029-19.956-20.119-19.956-0.016 0-0.032 0-0.048 0-11.113 0.026-20.101 9.002-20.073 20.050l0.517 218.602h-48.855v-264.72c56.952-5.006 101.731-51.534 101.731-108.032v-193.848c0-30.824-6.578-61.038-19.162-88.942 39.734 2.638 76.719 18.71 105.173 46.026 31.137 29.892 48.336 69.64 48.424 111.942l0.368 113.832c0.036 11.026 9.037 19.94 20.119 19.94 0.022 0 0.044 0 0.066 0 11.111-0.036 20.091-9.020 20.057-20.068l-0.368-113.81c-0.115-53.2-21.676-103.138-60.714-140.614-22.298-21.406-48.782-37.26-77.647-46.878 20.445-19.346 33.204-46.646 33.139-76.854-0.127-58.284-47.859-105.614-106.458-105.614-0.076 0-0.155 0-0.229 0-17.071 0.038-34.046 4.194-49.088 12.020-9.845 5.124-13.65 17.212-8.496 27 5.156 9.788 17.317 13.57 27.158 8.446 9.467-4.926 19.733-7.436 30.514-7.46 36.571-0.018 66.282 29.392 66.361 65.692s-29.564 65.896-66.077 65.974c-0.867 0.002-1.714 0.076-2.549 0.184-1.072 0.044-2.142 0.082-3.217 0.142-29.069-39.552-69.879-68.244-116.358-82.804 24.676-21.524 40.301-53.070 40.301-88.196-0.008-64.708-52.957-117.35-118.042-117.35-65.087 0-118.038 52.642-118.038 117.35 0 36.828 17.168 69.732 43.95 91.262-42.665 15.308-80.055 42.73-107.209 79.624-3.187-0.142-6.369-0.226-9.536-0.226-1.505 0-3.006 0.024-4.504 0.056-0.368-0.020-0.73-0.056-1.102-0.056-36.513 0-66.218-29.532-66.218-65.832s29.705-65.832 66.218-65.832c11.036 0 21.954 2.748 31.57 7.946 9.763 5.274 21.978 1.686 27.289-8.020 5.307-9.706 1.696-21.852-8.067-27.13-15.498-8.378-33.063-12.806-50.794-12.806-58.702 0-106.46 47.48-106.46 105.84 0 31.78 14.183 60.312 36.561 79.73-76.069 29.162-130.002 101.024-130.002 184.84v113.44c0 11.048 9.009 20.004 20.121 20.004s20.121-8.956 20.121-20.004v-113.44c0-82.96 66.62-151.212 151.169-158.11-12.527 27.85-19.079 57.996-19.079 88.756v193.848c0 57.616 46.565 104.866 105.123 108.282v264.468h-54.815v-218.654c0-11.048-9.009-20.004-20.121-20.004s-20.121 8.956-20.121 20.004v218.656h-49.46v-491.3c0-11.048-9.009-20.004-20.121-20.004s-20.121 8.956-20.121 20.004v491.3h-159.606c-11.113 0-20.121 8.956-20.121 20.004s9.006 20.004 20.121 20.004h958.782c11.113 0 20.121-8.956 20.121-20.004-0.004-11.048-9.011-20.004-20.123-20.004zM405.578 117.35c0-42.646 34.899-77.342 77.795-77.342s77.793 34.696 77.793 77.342c0 42.646-34.899 77.342-77.793 77.342s-77.795-34.696-77.795-77.342zM598.245 404.132c-11.113 0-20.121 8.956-20.121 20.004v559.856h-71.662v-278.294c0-11.048-9.009-20.004-20.121-20.004s-20.121 8.956-20.121 20.004v278.296h-61.488v-559.858c0-11.048-9.009-20.004-20.121-20.004s-20.121 8.956-20.121 20.004v255.282c-36.346-3.28-64.882-32.598-64.882-68.176v-193.848c0-34.62 10.127-68.318 29.287-97.448 35.109-53.378 95.235-85.246 160.837-85.246 65.711 0 125.892 31.95 160.98 85.468 19.065 29.080 29.144 62.7 29.144 97.226v193.848c0 34.464-26.776 63.050-61.488 67.79v-254.896c0.002-11.048-9.009-20.004-20.121-20.004z"
     id="path9"
     style="fill:#ffffff" />
</svg>
